<svg width="108" height="108" viewBox="0 0 108 108" fill="none" xmlns="http://www.w3.org/2000/svg">
<path fill-rule="evenodd" clip-rule="evenodd" d="M24.9623 15.6094H35.6864C38.6269 15.6094 40.8755 18.0309 40.8755 20.9714V59.5434C40.8755 63.0028 39.3188 65.4244 39.3188 68.1919C39.3188 76.4944 46.0645 83.0672 55.0589 83.0672C64.0533 83.0672 70.4531 76.4944 70.4531 68.1919C70.4531 65.4244 69.2423 63.0028 69.2423 59.5434V20.9714C69.2423 18.0309 71.4909 15.6094 74.4314 15.6094H82.388C86.1933 15.6094 89.3067 18.7228 89.3067 22.5281V59.5434C89.3067 77.8781 74.2584 92.7534 55.0589 92.7534C35.8594 92.7534 20.4652 77.8781 20.4652 59.5434V39.4791H23.2327V32.2144C20.6381 32.2144 18.5625 31.3495 18.5625 29.6198V25.9875C18.5625 24.4308 19.7733 23.22 21.33 23.22H24.9623V15.6094ZM27.038 25.2956C26.5191 25.2956 26.1731 25.8145 26.1731 26.3334V29.1009C26.1731 29.7928 26.692 30.1388 27.3839 30.1388H29.8055C30.4973 30.1388 30.8433 29.6198 30.8433 28.928V26.5064C30.8433 25.8145 30.3244 25.2956 29.6325 25.2956H27.038Z" fill="url(#paint0_linear_11_12)"/>
<path d="M54.8859 45.533C52.2914 48.9923 46.7564 55.9111 44.3348 60.9272C41.2214 67.1541 42.6051 73.7269 47.1023 77.1862C51.4265 79.9537 57.9994 79.9537 62.4965 77.0133C66.8208 73.8998 68.2045 67.1541 65.437 60.9272C63.0155 55.9111 57.6534 48.9923 54.8859 45.533Z" fill="url(#paint1_linear_11_12)"/>
<mask id="mask0_11_12" style="mask-type:luminance" maskUnits="userSpaceOnUse" x="18" y="15" width="72" height="78">
<path d="M24.9623 15.6094H35.6864C38.6269 15.6094 40.8755 18.0309 40.8755 20.9714V59.5434C40.8755 63.0028 39.3188 65.4244 39.3188 68.1919C39.3188 76.4944 46.0645 83.0672 55.0589 83.0672C64.0533 83.0672 70.4531 76.4944 70.4531 68.1919C70.4531 65.4244 69.2423 63.0028 69.2423 59.5434V20.9714C69.2423 18.0309 71.4909 15.6094 74.4314 15.6094H82.388C86.1933 15.6094 89.3067 18.7228 89.3067 22.5281V59.5434C89.3067 77.8781 74.2584 92.7534 55.0589 92.7534C35.8594 92.7534 20.4652 77.8781 20.4652 59.5434V39.4791H23.2327V32.2144C20.6381 32.2144 18.5625 31.3495 18.5625 29.6198V25.9875C18.5625 24.4308 19.7733 23.22 21.33 23.22H24.9623V15.6094ZM27.038 25.2956C26.5191 25.2956 26.1731 25.8145 26.1731 26.3334V29.1009C26.1731 29.7928 26.692 30.1388 27.3839 30.1388H29.8055C30.4973 30.1388 30.8433 29.6198 30.8433 28.928V26.5064C30.8433 25.8145 30.3244 25.2956 29.6325 25.2956H27.038Z" fill="white"/>
</mask>
<g mask="url(#mask0_11_12)">
<path d="M72.5625 15.6094H82.4766C87.75 15.6094 88.8047 18.1195 89.3827 22.1484V32.0288L72.5625 15.6094Z" fill="url(#paint2_linear_11_12)"/>
</g>
<defs>
<linearGradient id="paint0_linear_11_12" x1="18.5625" y1="15.6094" x2="95.4182" y2="86.0891" gradientUnits="userSpaceOnUse">
<stop stop-color="#A855F7"/>
<stop offset="0.48" stop-color="#9D4DF4"/>
<stop offset="1" stop-color="#7C2AEF"/>
</linearGradient>
<linearGradient id="paint1_linear_11_12" x1="42.6557" y1="45.533" x2="74.5995" y2="68.4794" gradientUnits="userSpaceOnUse">
<stop stop-color="#A855F7"/>
<stop offset="0.48" stop-color="#9D4DF4"/>
<stop offset="1" stop-color="#7C2AEF"/>
</linearGradient>
<linearGradient id="paint2_linear_11_12" x1="72.0858" y1="15.2508" x2="83.7038" y2="32.3613" gradientUnits="userSpaceOnUse">
<stop stop-color="#F2DDFF"/>
<stop offset="1" stop-color="#C084FC"/>
</linearGradient>
</defs>
</svg>
