<svg width="1024" height="1024" viewBox="0 0 1024 1024" fill="none" xmlns="http://www.w3.org/2000/svg">
  <rect width="1024" height="1024" fill="#FFFFFF"/>

<path fill-rule="evenodd" clip-rule="evenodd" d="M236.68 148H338.36C366.24 148 387.56 170.96 387.56 198.84V564.56C387.56 597.36 372.8 620.32 372.8 646.56C372.8 725.28 436.76 787.6 522.04 787.6C607.32 787.6 668 725.28 668 646.56C668 620.32 656.52 597.36 656.52 564.56V198.84C656.52 170.96 677.84 148 705.72 148H781.16C817.24 148 846.76 177.52 846.76 213.6V564.56C846.76 738.4 704.08 879.44 522.04 879.44C340 879.44 194.04 738.4 194.04 564.56V374.32H220.28V305.44C195.68 305.44 176 297.24 176 280.84V246.4C176 231.64 187.48 220.16 202.24 220.16H236.68V148ZM256.36 239.84C251.44 239.84 248.16 244.76 248.16 249.68V275.92C248.16 282.48 253.08 285.76 259.64 285.76H282.6C289.16 285.76 292.44 280.84 292.44 274.28V251.32C292.44 244.76 287.52 239.84 280.96 239.84H256.36Z" fill="url(#paint0_linear_11_12)"/>
<path d="M520.4 431.72C495.8 464.52 443.32 530.12 420.36 577.68C390.84 636.72 403.96 699.04 446.6 731.84C487.6 758.08 549.92 758.08 592.56 730.2C633.56 700.68 646.68 636.72 620.44 577.68C597.48 530.12 546.64 464.52 520.4 431.72Z" fill="url(#paint1_linear_11_12)"/>
<mask id="mask0_11_12" style="mask-type:luminance" maskUnits="userSpaceOnUse" x="176" y="148" width="671" height="732">
<path d="M236.68 148H338.36C366.24 148 387.56 170.96 387.56 198.84V564.56C387.56 597.36 372.8 620.32 372.8 646.56C372.8 725.28 436.76 787.6 522.04 787.6C607.32 787.6 668 725.28 668 646.56C668 620.32 656.52 597.36 656.52 564.56V198.84C656.52 170.96 677.84 148 705.72 148H781.16C817.24 148 846.76 177.52 846.76 213.6V564.56C846.76 738.4 704.08 879.44 522.04 879.44C340 879.44 194.04 738.4 194.04 564.56V374.32H220.28V305.44C195.68 305.44 176 297.24 176 280.84V246.4C176 231.64 187.48 220.16 202.24 220.16H236.68V148ZM256.36 239.84C251.44 239.84 248.16 244.76 248.16 249.68V275.92C248.16 282.48 253.08 285.76 259.64 285.76H282.6C289.16 285.76 292.44 280.84 292.44 274.28V251.32C292.44 244.76 287.52 239.84 280.96 239.84H256.36Z" fill="white"/>
</mask>
<g mask="url(#mask0_11_12)">
<path d="M688 148H782C832 148 842 171.8 847.48 210V303.68L688 148Z" fill="url(#paint2_linear_11_12)"/>
</g>
<defs>
<linearGradient id="paint0_linear_11_12" x1="176" y1="148" x2="904.706" y2="816.252" gradientUnits="userSpaceOnUse">
<stop stop-color="#A855F7"/>
<stop offset="0.48" stop-color="#9D4DF4"/>
<stop offset="1" stop-color="#7C2AEF"/>
</linearGradient>
<linearGradient id="paint1_linear_11_12" x1="404.439" y1="431.72" x2="707.314" y2="649.286" gradientUnits="userSpaceOnUse">
<stop stop-color="#A855F7"/>
<stop offset="0.48" stop-color="#9D4DF4"/>
<stop offset="1" stop-color="#7C2AEF"/>
</linearGradient>
<linearGradient id="paint2_linear_11_12" x1="683.48" y1="144.6" x2="793.636" y2="306.833" gradientUnits="userSpaceOnUse">
<stop stop-color="#F2DDFF"/>
<stop offset="1" stop-color="#C084FC"/>
</linearGradient>
</defs>

</svg>
